<svg xmlns="http://www.w3.org/2000/svg" version="1.1" xmlns:xlink="http://www.w3.org/1999/xlink" xmlns:svgjs="http://svgjs.dev/svgjs" width="1440" height="560" preserveAspectRatio="none" viewBox="0 0 1440 560"><g mask="url(&quot;#SvgjsMask2997&quot;)" fill="none"><rect width="1440" height="560" x="0" y="0" fill="url(&quot;#SvgjsLinearGradient2998&quot;)"></rect><path d="M79.31 443.01 a155.39 155.39 0 1 0 310.78 0 a155.39 155.39 0 1 0 -310.78 0z" fill="rgba(102, 102, 102, 0.4)" class="triangle-float3"></path><path d="M93.52 118.26 a125.79 125.79 0 1 0 251.58 0 a125.79 125.79 0 1 0 -251.58 0z" fill="rgba(102, 102, 102, 0.4)" class="triangle-float2"></path><path d="M-131.09 58.85 a131.85 131.85 0 1 0 263.7 0 a131.85 131.85 0 1 0 -263.7 0z" fill="rgba(102, 102, 102, 0.4)" class="triangle-float1"></path><path d="M920.61 416.22 a149.73 149.73 0 1 0 299.46 0 a149.73 149.73 0 1 0 -299.46 0z" fill="rgba(102, 102, 102, 0.4)" class="triangle-float1"></path><path d="M805.52 71.33 a128.63 128.63 0 1 0 257.26 0 a128.63 128.63 0 1 0 -257.26 0z" fill="rgba(102, 102, 102, 0.4)" class="triangle-float3"></path><path d="M567.26 143.55 a158.13 158.13 0 1 0 316.26 0 a158.13 158.13 0 1 0 -316.26 0z" fill="rgba(102, 102, 102, 0.4)" class="triangle-float1"></path><path d="M1198.53 356.38 a146.26 146.26 0 1 0 292.52 0 a146.26 146.26 0 1 0 -292.52 0z" fill="rgba(102, 102, 102, 0.4)" class="triangle-float2"></path><path d="M606.59 10.76 a97.65 97.65 0 1 0 195.3 0 a97.65 97.65 0 1 0 -195.3 0z" fill="rgba(102, 102, 102, 0.4)" class="triangle-float1"></path><path d="M1149.15 223.9 a105.4 105.4 0 1 0 210.8 0 a105.4 105.4 0 1 0 -210.8 0z" fill="rgba(102, 102, 102, 0.4)" class="triangle-float2"></path></g><defs><mask id="SvgjsMask2997"><rect width="1440" height="560" fill="#ffffff"></rect></mask><linearGradient x1="50%" y1="0%" x2="50%" y2="100%" gradientUnits="userSpaceOnUse" id="SvgjsLinearGradient2998"><stop stop-color="rgba(105, 105, 105, 1)" offset="0"></stop><stop stop-color="rgba(250, 252, 255, 1)" offset="1"></stop></linearGradient><style>
                @keyframes float1 {
                    0%{transform: translate(0, 0)}
                    50%{transform: translate(-10px, 0)}
                    100%{transform: translate(0, 0)}
                }

                .triangle-float1 {
                    animation: float1 5s infinite;
                }

                @keyframes float2 {
                    0%{transform: translate(0, 0)}
                    50%{transform: translate(-5px, -5px)}
                    100%{transform: translate(0, 0)}
                }

                .triangle-float2 {
                    animation: float2 4s infinite;
                }

                @keyframes float3 {
                    0%{transform: translate(0, 0)}
                    50%{transform: translate(0, -10px)}
                    100%{transform: translate(0, 0)}
                }

                .triangle-float3 {
                    animation: float3 6s infinite;
                }
            </style></defs></svg>